# xmcd CD database file
#
# Track frame offsets:
#	150
#	11840
#	22627
#	30840
#	41980
#	71135
#	86785
#	99102
#	107522
#	126000
#	144820
#	154682
#	179212
#
# Disc length: 2567 seconds
#
# Revision: 3
# Processed by: cddbd v1.5.1PL0 Copyright (c) Steve Scherf et al.
# Submitted via: CDex 1.51
#
DISCID=9d0a050d
DTITLE=Sammy Davis, Jr - At Town Hall
DYEAR=2004
DGENRE=Jazz
TTITLE0=Something's Gotta Give
TTITLE1=And This Is My Beloved
TTITLE2=Hey There
TTITLE3=My Funny Valentine
TTITLE4=It's All Right With Me
TTITLE5=But Not For Me
TTITLE6=Ethel, Baby
TTITLE7=Too Close For Comfort
TTITLE8=My Heart Is So Full of You
TTITLE9=Ol' Man River
TTITLE10=Chicago
TTITLE11=Tap Dance (How High The Moon)
TTITLE12=Impersonations
EXTD=YEAR: 2004
EXTT0=
EXTT1=
EXTT2=
EXTT3=
EXTT4=
EXTT5=
EXTT6=
EXTT7=
EXTT8=
EXTT9=
EXTT10=
EXTT11=
EXTT12=
PLAYORDER=
